<?xml version="1.0" encoding="UTF-8" standalone="no"?>
<!DOCTYPE svg PUBLIC "-//W3C//DTD SVG 1.1//EN" "http://www.w3.org/Graphics/SVG/1.1/DTD/svg11.dtd">
<!--Generator: Xara Designer (www.xara.com), SVG filter version: 6.1.0.18-->
<svg stroke-width="0.501" stroke-linejoin="bevel" fill-rule="evenodd" xmlns:xlink="http://www.w3.org/1999/xlink" xmlns="http://www.w3.org/2000/svg" version="1.1" overflow="visible" width="750pt" height="525pt" viewBox="0 0 750 525">
 <defs>
	</defs>
 <g id="Document" fill="none" stroke="black" font-family="Times New Roman" font-size="16" transform="scale(1 -1)">
  <g id="Spread" transform="translate(0 -525)">
   <g id="OS bird copy">
    <g id="Group">
     <path d="M 91.9,212.525 C 106.073,212.525 117.767,217.49 126.989,227.424 C 136.211,237.358 140.819,249.799 140.819,264.752 C 140.819,279.566 136.156,292.027 126.83,302.136 C 117.499,312.249 105.858,317.304 91.9,317.304 C 77.731,317.304 65.984,312.267 56.653,302.192 C 47.327,292.114 42.663,279.636 42.663,264.752 C 42.663,249.66 47.254,237.178 56.439,227.318 C 65.626,217.456 77.447,212.525 91.9,212.525 Z M 175.212,264.752 C 175.212,253.575 173.131,242.999 168.964,233.033 C 164.8,223.062 158.8,214.304 150.971,206.758 C 142.853,198.993 133.7,193.05 123.515,188.918 C 113.335,184.79 102.796,182.724 91.9,182.724 C 82.36,182.724 73.016,184.344 63.864,187.584 C 54.714,190.823 46.331,195.471 38.71,201.521 C 28.884,209.356 21.355,218.721 16.121,229.615 C 10.885,240.51 8.273,252.223 8.273,264.752 C 8.273,276.006 10.332,286.56 14.465,296.423 C 18.595,306.286 24.646,315.064 32.626,322.754 C 40.454,330.369 49.552,336.281 59.911,340.483 C 70.272,344.681 80.939,346.782 91.9,346.782 C 102.796,346.782 113.39,344.681 123.677,340.483 C 133.965,336.281 143.065,330.369 150.971,322.754 C 158.873,315.064 164.888,306.267 169.018,296.368 C 173.148,286.473 175.212,275.934 175.212,264.752 Z" stroke="none" fill="#231f20" stroke-width="0.246" fill-rule="nonzero" stroke-linejoin="miter" marker-start="none" marker-end="none"/>
     <path d="M 91.9,212.525 C 106.073,212.525 117.767,217.49 126.989,227.424 C 136.211,237.358 140.819,249.799 140.819,264.752 C 140.819,279.566 136.156,292.027 126.83,302.136 C 117.499,312.249 105.858,317.304 91.9,317.304 C 77.731,317.304 65.984,312.267 56.653,302.192 C 47.327,292.114 42.663,279.636 42.663,264.752 C 42.663,249.66 47.254,237.178 56.439,227.318 C 65.626,217.456 77.447,212.525 91.9,212.525 Z M 175.212,264.752 C 175.212,253.575 173.131,242.999 168.964,233.033 C 164.8,223.062 158.8,214.304 150.971,206.758 C 142.853,198.993 133.7,193.05 123.515,188.918 C 113.335,184.79 102.796,182.724 91.9,182.724 C 82.36,182.724 73.016,184.344 63.864,187.584 C 54.714,190.823 46.331,195.471 38.71,201.521 C 28.884,209.356 21.355,218.721 16.121,229.615 C 10.885,240.51 8.273,252.223 8.273,264.752 C 8.273,276.006 10.332,286.56 14.465,296.423 C 18.595,306.286 24.646,315.064 32.626,322.754 C 40.454,330.369 49.552,336.281 59.911,340.483 C 70.272,344.681 80.939,346.782 91.9,346.782 C 102.796,346.782 113.39,344.681 123.677,340.483 C 133.965,336.281 143.065,330.369 150.971,322.754 C 158.873,315.064 164.888,306.267 169.018,296.368 C 173.148,286.473 175.212,275.934 175.212,264.752 Z" fill="none" stroke="#231f20" stroke-width="5.912" stroke-linejoin="round" stroke-linecap="round" marker-start="none" marker-end="none"/>
     <path d="M 180.654,186.89 L 204.471,343.26 L 239.506,343.26 L 269.627,251.191 C 270.267,249.269 270.959,246.454 271.711,242.749 C 272.457,239.049 273.152,234.81 273.792,230.043 C 274.362,234.881 275.001,239.208 275.716,243.019 C 276.428,246.826 277.103,249.62 277.745,251.404 L 308.399,343.26 L 342.897,343.26 L 366.824,186.89 L 335.101,186.89 L 323.673,281.201 C 322.817,288.181 322.248,293.451 321.962,297.008 C 321.678,300.571 321.537,303.88 321.537,306.946 C 321.537,308.579 321.555,309.809 321.59,310.628 C 321.623,311.449 321.678,312.175 321.751,312.818 C 320.68,306.695 319.665,301.409 318.707,296.956 C 317.744,292.505 316.871,289.14 316.089,286.866 L 282.979,186.89 L 264.18,186.89 L 231.603,286.866 C 231.317,287.789 230.694,290.353 229.734,294.556 C 228.775,298.752 227.437,304.878 225.728,312.926 L 225.728,308.331 C 225.728,301.069 225.087,292.169 223.806,281.627 L 223.698,281.201 L 212.376,186.89 L 180.654,186.89 Z" stroke="none" fill="#231f20" stroke-width="0.246" fill-rule="nonzero" stroke-linejoin="round" stroke-linecap="round" marker-start="none" marker-end="none"/>
     <path d="M 180.654,186.89 L 204.471,343.26 L 239.506,343.26 L 269.627,251.191 C 270.267,249.269 270.959,246.454 271.711,242.749 C 272.457,239.049 273.152,234.81 273.792,230.043 C 274.362,234.881 275.001,239.208 275.716,243.019 C 276.428,246.826 277.103,249.62 277.745,251.404 L 308.399,343.26 L 342.897,343.26 L 366.824,186.89 L 335.101,186.89 L 323.673,281.201 C 322.817,288.181 322.248,293.451 321.962,297.008 C 321.678,300.571 321.537,303.88 321.537,306.946 C 321.537,308.579 321.555,309.809 321.59,310.628 C 321.623,311.449 321.678,312.175 321.751,312.818 C 320.68,306.695 319.665,301.409 318.707,296.956 C 317.744,292.505 316.871,289.14 316.089,286.866 L 282.979,186.89 L 264.18,186.89 L 231.603,286.866 C 231.317,287.789 230.694,290.353 229.734,294.556 C 228.775,298.752 227.437,304.878 225.728,312.926 L 225.728,308.331 C 225.728,301.069 225.087,292.169 223.806,281.627 L 223.698,281.201 L 212.376,186.89 L 180.654,186.89 Z" fill="none" stroke="#231f20" stroke-width="5.912" stroke-linejoin="round" stroke-linecap="round" marker-start="none" marker-end="none"/>
     <path d="M 381.326,186.89 L 381.326,343.26 L 416.036,343.26 L 485.249,252.259 C 487.246,249.694 489.434,246.08 491.818,241.416 C 494.21,236.751 496.678,231.248 499.243,224.915 C 498.456,229.54 497.892,234.135 497.534,238.69 C 497.176,243.25 497.002,248.945 497.002,255.781 L 497.002,343.26 L 528.936,343.26 L 529.097,221.118 C 529.097,221.118 504.956,221.24 482.171,204.921 C 481.749,204.618 425.008,279.603 425.008,279.603 C 423.019,282.165 420.847,285.777 418.496,290.443 C 416.147,295.104 413.654,300.676 411.021,307.159 C 411.799,302.674 412.373,298.133 412.73,293.539 C 413.081,288.946 413.262,283.159 413.262,276.184 L 413.262,186.89 L 381.326,186.89 Z" stroke="none" fill="#231f20" stroke-width="0.246" fill-rule="nonzero" stroke-linejoin="round" stroke-linecap="round" marker-start="none" marker-end="none"/>
     <path d="M 381.326,186.89 L 381.326,343.26 L 416.036,343.26 L 485.249,252.259 C 487.246,249.694 489.434,246.08 491.818,241.416 C 494.21,236.751 496.678,231.248 499.243,224.915 C 498.456,229.54 497.892,234.135 497.534,238.69 C 497.176,243.25 497.002,248.945 497.002,255.781 L 497.002,343.26 L 528.936,343.26 L 529.097,221.118 C 529.097,221.118 504.956,221.24 482.171,204.921 C 481.749,204.618 425.008,279.603 425.008,279.603 C 423.019,282.165 420.847,285.777 418.496,290.443 C 416.147,295.104 413.654,300.676 411.021,307.159 C 411.799,302.674 412.373,298.133 412.73,293.539 C 413.081,288.946 413.262,283.159 413.262,276.184 L 413.262,186.89 L 381.326,186.89 Z" fill="none" stroke="#231f20" stroke-width="5.912" stroke-linejoin="round" stroke-linecap="round" marker-start="none" marker-end="none"/>
     <path d="M 554.716,218.348 C 554.766,211.45 554.788,343.26 554.788,343.26 L 563.341,343.047 C 563.341,343.047 573.678,326.726 588.095,316.661 C 588.218,310.358 588.092,224.629 587.972,197.777 C 587.972,197.777 577.184,211.08 554.716,218.348 Z" stroke="none" fill="#231f20" stroke-width="0.246" fill-rule="nonzero" stroke-linejoin="round" stroke-linecap="round" marker-start="none" marker-end="none"/>
     <path d="M 554.716,218.348 C 554.766,211.45 554.788,343.26 554.788,343.26 L 563.341,343.047 C 563.341,343.047 573.678,326.726 588.095,316.661 C 588.218,310.358 588.092,224.629 587.972,197.777 C 587.972,197.777 577.184,211.08 554.716,218.348 Z" fill="none" stroke="#231f20" stroke-width="5.912" stroke-linejoin="round" stroke-linecap="round" marker-start="none" marker-end="none"/>
     <path d="M 602.855,307.819 C 602.855,307.819 735.148,225.031 714.355,134.3 C 714.355,134.3 708.636,189.332 661.831,207.07 C 661.831,207.07 612.072,217.908 639.364,261.571 C 639.364,261.571 620.113,275.532 603.407,274.11 C 603.407,274.11 633.014,281.745 602.855,307.819 Z" stroke="none" fill="#d7d7d7" stroke-width="0.246" fill-rule="nonzero" stroke-linejoin="round" stroke-linecap="round" marker-start="none" marker-end="none"/>
     <path d="M 578.525,417.66 C 578.525,417.66 526.292,369.299 607.837,314.326 C 607.837,314.326 720.893,244.737 727.36,152.694 C 727.36,152.694 731.82,118.925 700.225,82.103 C 729.55,97.139 763.89,154.905 732.62,211.642 C 732.62,211.642 706.095,270.46 639.979,314.468 C 639.979,314.468 635.601,319.815 643.303,329.029 C 643.303,329.029 629.008,329.944 628.742,321.199 C 628.742,321.199 592.022,344.317 600.81,372.338 C 600.81,372.338 608.164,397.641 626.073,396.974 C 626.073,396.974 612.456,410.518 590.22,398.921 C 590.22,398.921 575.453,402.864 578.525,417.66 Z" stroke="none" fill="#c8c8c8" stroke-width="0.246" fill-rule="nonzero" stroke-linejoin="round" stroke-linecap="round" marker-start="none" marker-end="none"/>
     <path d="M 601.566,522.23 C 601.566,522.23 530.211,443.9 639.918,428.019 C 639.918,428.019 566.768,444.078 601.566,522.23 Z" stroke="none" fill="#c8c8c8" stroke-width="0.246" fill-rule="nonzero" stroke-linejoin="round" stroke-linecap="round" marker-start="none" marker-end="none"/>
     <path d="M 637.336,422.472 C 637.336,422.472 648.742,423.225 644.771,429.475 C 644.771,429.475 574.535,467.478 625.563,511.928 C 625.563,511.928 601.162,464.93 657.836,427.117 C 657.836,427.117 683.616,410.364 637.336,422.472 Z" stroke="none" fill="#c8c8c8" stroke-width="0.246" fill-rule="nonzero" stroke-linejoin="round" stroke-linecap="round" marker-start="none" marker-end="none"/>
     <path d="M 656.803,493.621 C 656.803,493.621 616.15,469.685 668.184,422.472 C 668.184,422.472 669.944,420.505 668.681,419.111 C 668.681,419.111 677.627,420.281 667.638,431.128 C 667.638,431.128 637.605,468.524 656.803,493.621 Z" stroke="none" fill="#c8c8c8" stroke-width="0.246" fill-rule="nonzero" stroke-linejoin="round" stroke-linecap="round" marker-start="none" marker-end="none"/>
     <path d="M 644.841,402.771 C 644.841,402.771 662.143,402.687 668.696,387.821 C 668.696,387.821 669.06,384.97 671.854,383.13 C 671.854,383.13 718.672,374.945 693.803,333.874 C 693.803,333.874 697.13,364.867 670.03,366.328 C 670.03,366.328 656.192,371.997 667.362,379.545 C 667.362,379.545 666.178,383.959 662.223,383.419 C 662.223,383.419 649.03,381.628 649.456,395.626 C 649.456,395.626 650.866,399.304 644.841,402.771 Z" stroke="none" fill="#c8c8c8" stroke-width="0.246" fill-rule="nonzero" stroke-linejoin="round" stroke-linecap="round" marker-start="none" marker-end="none"/>
     <path d="M 531.007,98.799 C 542.496,98.799 551.978,102.826 559.456,110.88 C 566.932,118.935 570.671,129.023 570.671,141.149 C 570.671,153.156 566.89,163.26 559.327,171.458 C 551.761,179.656 542.321,183.757 531.007,183.757 C 519.518,183.757 509.992,179.671 502.427,171.502 C 494.864,163.332 491.082,153.215 491.082,141.149 C 491.082,128.907 494.807,118.788 502.254,110.794 C 509.702,102.796 519.285,98.799 531.007,98.799 Z M 598.558,141.149 C 598.558,132.082 596.869,123.51 593.491,115.426 C 590.113,107.343 585.249,100.242 578.899,94.123 C 572.317,87.829 564.898,83.008 556.642,79.66 C 548.384,76.312 539.84,74.637 531.007,74.637 C 523.27,74.637 515.691,75.95 508.274,78.578 C 500.854,81.204 494.056,84.972 487.878,89.878 C 479.912,96.23 473.805,103.822 469.563,112.656 C 465.319,121.488 463.199,130.985 463.199,141.149 C 463.199,150.269 464.871,158.828 468.219,166.826 C 471.568,174.82 476.477,181.937 482.944,188.174 C 489.294,194.35 496.669,199.142 505.07,202.549 C 513.471,205.956 522.116,207.658 531.007,207.658 C 539.84,207.658 548.428,205.956 556.771,202.549 C 565.114,199.142 572.491,194.35 578.899,188.174 C 585.306,181.937 590.186,174.807 593.534,166.782 C 596.882,158.757 598.558,150.211 598.558,141.149 Z" stroke="none" fill="#fbb040" stroke-width="0.246" fill-rule="nonzero" stroke-linejoin="round" stroke-linecap="round" marker-start="none" marker-end="none"/>
     <path d="M 531.007,98.799 C 542.496,98.799 551.978,102.826 559.456,110.88 C 566.932,118.935 570.671,129.023 570.671,141.149 C 570.671,153.156 566.89,163.26 559.327,171.458 C 551.761,179.656 542.321,183.757 531.007,183.757 C 519.518,183.757 509.992,179.671 502.427,171.502 C 494.864,163.332 491.082,153.215 491.082,141.149 C 491.082,128.907 494.807,118.788 502.254,110.794 C 509.702,102.796 519.285,98.799 531.007,98.799 Z M 598.558,141.149 C 598.558,132.082 596.869,123.51 593.491,115.426 C 590.113,107.343 585.249,100.242 578.899,94.123 C 572.317,87.829 564.898,83.008 556.642,79.66 C 548.384,76.312 539.84,74.637 531.007,74.637 C 523.27,74.637 515.691,75.95 508.274,78.578 C 500.854,81.204 494.056,84.972 487.878,89.878 C 479.912,96.23 473.805,103.822 469.563,112.656 C 465.319,121.488 463.199,130.985 463.199,141.149 C 463.199,150.269 464.871,158.828 468.219,166.826 C 471.568,174.82 476.477,181.937 482.944,188.174 C 489.294,194.35 496.669,199.142 505.07,202.549 C 513.471,205.956 522.116,207.658 531.007,207.658 C 539.84,207.658 548.428,205.956 556.771,202.549 C 565.114,199.142 572.491,194.35 578.899,188.174 C 585.306,181.937 590.186,174.807 593.534,166.782 C 596.882,158.757 598.558,150.211 598.558,141.149 Z" fill="none" stroke="#fbb040" stroke-width="5.912" stroke-linejoin="round" stroke-linecap="round" marker-start="none" marker-end="none"/>
     <path d="M 603.523,94.123 L 618.593,111.182 C 620.498,106.506 623.558,102.826 627.771,100.141 C 631.986,97.457 636.721,96.114 641.974,96.114 C 648.327,96.114 653.349,97.615 657.044,100.617 C 660.738,103.618 662.586,107.661 662.586,112.741 C 662.586,118.746 656.437,124.723 644.141,130.669 C 640.157,132.573 637.009,134.132 634.701,135.346 C 623.616,141.117 615.936,146.761 611.664,152.276 C 607.391,157.788 605.256,164.357 605.256,171.978 C 605.256,182.427 609.398,191.016 617.684,197.742 C 625.967,204.467 636.721,207.832 649.942,207.832 C 657.621,207.832 664.245,206.489 669.818,203.804 C 675.39,201.12 680.311,196.92 684.584,191.204 L 668.563,175.875 C 666.657,179.569 664.131,182.327 660.984,184.147 C 657.837,185.964 654.042,186.874 649.597,186.874 C 644.227,186.874 639.896,185.532 636.605,182.847 C 633.314,180.162 631.669,176.684 631.669,172.411 C 631.669,165.712 638.194,159.595 651.242,154.052 C 653.839,152.954 655.831,152.089 657.218,151.453 C 667.957,146.546 675.909,141.003 681.076,134.825 C 686.243,128.647 688.827,121.604 688.827,113.695 C 688.827,101.8 684.77,92.317 676.659,85.245 C 668.548,78.173 657.651,74.637 643.967,74.637 C 634.268,74.637 625.955,76.312 619.025,79.66 C 612.097,83.008 606.93,87.829 603.523,94.123 Z" stroke="none" fill="#fbb040" stroke-width="0.246" fill-rule="nonzero" stroke-linejoin="round" stroke-linecap="round" marker-start="none" marker-end="none"/>
     <path d="M 603.523,94.123 L 618.593,111.182 C 620.498,106.506 623.558,102.826 627.771,100.141 C 631.986,97.457 636.721,96.114 641.974,96.114 C 648.327,96.114 653.349,97.615 657.044,100.617 C 660.738,103.618 662.586,107.661 662.586,112.741 C 662.586,118.746 656.437,124.723 644.141,130.669 C 640.157,132.573 637.009,134.132 634.701,135.346 C 623.616,141.117 615.936,146.761 611.664,152.276 C 607.391,157.788 605.256,164.357 605.256,171.978 C 605.256,182.427 609.398,191.016 617.684,197.742 C 625.967,204.467 636.721,207.832 649.942,207.832 C 657.621,207.832 664.245,206.489 669.818,203.804 C 675.39,201.12 680.311,196.92 684.584,191.204 L 668.563,175.875 C 666.657,179.569 664.131,182.327 660.984,184.147 C 657.837,185.964 654.042,186.874 649.597,186.874 C 644.227,186.874 639.896,185.532 636.605,182.847 C 633.314,180.162 631.669,176.684 631.669,172.411 C 631.669,165.712 638.194,159.595 651.242,154.052 C 653.839,152.954 655.831,152.089 657.218,151.453 C 667.957,146.546 675.909,141.003 681.076,134.825 C 686.243,128.647 688.827,121.604 688.827,113.695 C 688.827,101.8 684.77,92.317 676.659,85.245 C 668.548,78.173 657.651,74.637 643.967,74.637 C 634.268,74.637 625.955,76.312 619.025,79.66 C 612.097,83.008 606.93,87.829 603.523,94.123 Z" fill="none" stroke="#fbb040" stroke-width="5.912" stroke-linejoin="round" stroke-linecap="round" marker-start="none" marker-end="none"/>
     <g id="Group_1" fill-rule="nonzero" stroke-linejoin="miter" stroke="none" stroke-width="0.717" fill="#c7c7c7">
      <path d="M 35.762,98.875 L 35.762,87.169 C 31.736,85.37 28.405,84.47 25.765,84.47 C 19.843,84.47 14.898,86.42 10.925,90.319 C 6.971,94.235 4.993,99.122 4.993,104.974 C 4.993,110.851 6.828,115.722 10.502,119.586 C 14.173,123.459 18.833,125.399 24.482,125.399 C 28.412,125.399 32.219,124.483 35.905,122.655 L 35.905,111.597 C 32.488,113.237 29.365,114.057 26.536,114.057 C 23.906,114.057 21.793,113.257 20.193,111.656 C 18.595,110.06 17.795,107.952 17.795,105.338 C 17.795,102.737 18.591,100.637 20.176,99.037 C 21.76,97.441 23.847,96.642 26.431,96.642 C 28.793,96.642 31.902,97.387 35.762,98.875 Z" marker-start="none" marker-end="none"/>
      <path d="M 44.011,104.87 C 44.011,110.94 45.943,115.894 49.804,119.725 C 53.681,123.574 58.654,125.497 64.723,125.497 C 70.357,125.497 75.086,123.542 78.908,119.626 C 82.741,115.708 84.658,110.851 84.658,105.054 C 84.658,99.146 82.741,94.235 78.908,90.319 C 75.086,86.42 70.297,84.47 64.539,84.47 C 58.05,84.47 53.001,86.533 49.397,90.665 C 45.807,94.798 44.011,99.532 44.011,104.87 Z M 73.136,104.87 C 73.136,107.525 72.261,109.844 70.516,111.821 C 68.78,113.799 66.752,114.789 64.435,114.789 C 62.039,114.789 59.964,113.859 58.22,112.005 C 56.484,110.149 55.618,107.928 55.618,105.338 C 55.618,102.494 56.477,100.081 58.198,98.104 C 59.92,96.126 62,95.135 64.435,95.135 C 66.752,95.135 68.78,96.104 70.516,98.042 C 72.261,99.978 73.136,102.255 73.136,104.87 Z" marker-start="none" marker-end="none"/>
      <path d="M 107.116,124.625 L 107.116,118.363 C 107.659,118.73 108.465,119.428 109.534,120.461 C 110.608,121.5 111.635,122.384 112.625,123.099 C 113.615,123.818 114.798,124.395 116.181,124.826 C 117.575,125.274 118.836,125.497 119.963,125.497 C 121.763,125.497 123.713,124.862 125.815,123.588 C 127.914,122.327 129.669,120.084 131.077,116.863 C 133.518,119.966 135.903,122.18 138.231,123.508 C 140.562,124.836 142.736,125.497 144.754,125.497 C 148.319,125.497 151.333,124.031 153.797,121.088 C 156.263,118.149 157.497,114.526 157.497,110.216 L 157.497,85.301 L 145.791,85.301 L 145.791,107.107 C 145.791,109.274 145.195,111.099 144.002,112.571 C 142.823,114.052 141.394,114.789 139.715,114.789 C 137.708,114.789 135.977,113.949 134.512,112.268 C 133.05,110.603 132.317,108.61 132.317,106.292 L 132.317,85.301 L 120.694,85.301 L 120.694,106.556 C 120.694,108.848 120.088,110.777 118.885,112.349 C 117.677,113.922 116.22,114.707 114.514,114.707 C 112.508,114.707 110.776,113.845 109.31,112.127 C 107.847,110.408 107.116,108.339 107.116,105.927 L 107.116,85.301 L 95.308,85.301 L 95.308,124.625 L 107.116,124.625 Z" marker-start="none" marker-end="none"/>
      <path d="M 181.295,124.625 L 181.295,118.363 C 181.836,118.73 182.645,119.428 183.714,120.461 C 184.784,121.5 185.815,122.384 186.803,123.099 C 187.793,123.818 188.977,124.395 190.359,124.826 C 191.756,125.274 193.014,125.497 194.142,125.497 C 195.941,125.497 197.892,124.862 199.994,123.588 C 202.094,122.327 203.847,120.084 205.255,116.863 C 207.695,119.966 210.08,122.18 212.408,123.508 C 214.739,124.836 216.914,125.497 218.933,125.497 C 222.497,125.497 225.511,124.031 227.977,121.088 C 230.443,118.149 231.674,114.526 231.674,110.216 L 231.674,85.301 L 219.971,85.301 L 219.971,107.107 C 219.971,109.274 219.373,111.099 218.18,112.571 C 217.002,114.052 215.575,114.789 213.895,114.789 C 211.887,114.789 210.156,113.949 208.69,112.268 C 207.227,110.603 206.496,108.61 206.496,106.292 L 206.496,85.301 L 194.872,85.301 L 194.872,106.556 C 194.872,108.848 194.268,110.777 193.063,112.349 C 191.856,113.922 190.401,114.707 188.694,114.707 C 186.686,114.707 184.954,113.845 183.489,112.127 C 182.027,110.408 181.295,108.339 181.295,105.927 L 181.295,85.301 L 169.488,85.301 L 169.488,124.625 L 181.295,124.625 Z" marker-start="none" marker-end="none"/>
      <path d="M 243.036,124.544 L 254.926,124.544 L 254.926,105.706 C 254.926,102.982 255.617,100.711 256.997,98.898 C 258.393,97.095 260.107,96.194 262.141,96.194 C 264.31,96.194 266.128,97.065 267.606,98.815 C 269.082,100.564 269.822,102.765 269.822,105.418 L 269.822,124.544 L 281.71,124.544 L 281.71,101.68 C 281.71,96.829 279.859,92.765 276.164,89.486 C 272.462,86.205 267.85,84.569 262.322,84.569 C 256.47,84.569 251.789,86.215 248.279,89.506 C 244.785,92.799 243.036,97.174 243.036,102.638 L 243.036,124.544 Z" marker-start="none" marker-end="none"/>
      <path d="M 305.449,124.625 L 305.449,119.973 C 309.447,123.711 313.643,125.578 318.032,125.578 C 321.781,125.578 324.883,124.042 327.338,120.966 C 329.79,117.891 331.015,113.964 331.015,109.179 L 331.015,85.301 L 319.126,85.301 L 319.126,107.29 C 319.126,109.553 318.51,111.455 317.276,113.002 C 316.043,114.558 314.542,115.335 312.766,115.335 C 310.638,115.335 308.885,114.355 307.502,112.392 C 306.134,110.424 305.449,107.891 305.449,104.789 L 305.449,85.301 L 293.745,85.301 L 293.745,124.625 L 305.449,124.625 Z" marker-start="none" marker-end="none"/>
      <path d="M 341.584,139.176 C 341.584,141.154 342.303,142.853 343.741,144.276 C 345.176,145.713 346.896,146.432 348.901,146.432 C 350.92,146.432 352.64,145.713 354.062,144.276 C 355.499,142.853 356.218,141.154 356.218,139.176 C 356.218,137.156 355.499,135.43 354.062,133.995 C 352.64,132.573 350.92,131.862 348.901,131.862 C 346.896,131.862 345.176,132.573 343.741,133.995 C 342.303,135.43 341.584,137.156 341.584,139.176 Z M 343.088,124.625 L 354.794,124.625 L 354.794,85.301 L 343.088,85.301 L 343.088,124.625 Z" marker-start="none" marker-end="none"/>
      <path d="M 366.869,138.121 L 378.573,138.121 L 378.573,124.625 L 384.205,124.625 L 384.205,113.875 L 378.573,113.875 L 378.573,85.301 L 366.869,85.301 L 366.869,113.875 L 362.395,113.875 L 362.395,124.625 L 366.869,124.625 L 366.869,138.121 Z" marker-start="none" marker-end="none"/>
      <path d="M 388.004,124.544 L 400.483,124.544 L 411.783,101.68 L 421.841,124.544 L 433.809,124.544 L 409.362,67.965 L 397.19,67.965 L 405.967,88.084 L 388.004,124.544 Z" marker-start="none" marker-end="none"/>
     </g>
     <g id="Group_2" fill-rule="nonzero" stroke-linejoin="miter" stroke="none" stroke-width="0.717" fill="#c7c7c7">
      <path d="M 316.653,20.467 L 288.608,20.467 C 288.768,17.951 289.602,15.898 291.108,14.312 C 292.61,12.727 294.372,11.936 296.391,11.936 C 299.983,11.936 302.798,13.56 304.845,16.813 L 315.597,13.255 C 311.598,6.264 305.394,2.77 296.98,2.77 C 290.787,2.77 285.863,4.646 282.205,8.398 C 278.548,12.15 276.717,17.199 276.717,23.539 C 276.717,29.244 278.651,34.025 282.51,37.887 C 286.372,41.76 291.119,43.699 296.757,43.699 C 302.42,43.699 307.147,41.666 310.941,37.601 C 314.749,33.54 316.653,28.456 316.653,22.361 L 316.653,20.467 Z M 288.707,28.333 L 304.518,28.333 C 303.424,33.254 300.908,35.71 296.98,35.71 C 294.729,35.71 292.863,35.068 291.372,33.781 C 289.892,32.508 289.006,30.694 288.707,28.333 Z" marker-start="none" marker-end="none"/>
      <path d="M 350.511,64.651 L 362.316,64.651 L 362.316,3.603 L 350.793,3.603 L 350.793,10.329 L 350.612,10.329 C 347.197,5.412 342.955,2.954 337.89,2.954 C 333.38,2.954 329.527,4.916 326.346,8.847 C 323.162,12.786 321.57,17.598 321.57,23.276 C 321.57,28.94 323.215,33.774 326.509,37.785 C 329.8,41.797 333.748,43.799 338.356,43.799 C 340.972,43.799 343.18,43.322 344.983,42.358 C 346.783,41.396 348.629,39.831 350.511,37.663 L 350.511,64.651 Z M 341.871,32.177 C 339.948,32.177 338.143,31.29 336.467,29.511 C 334.802,27.752 333.966,25.369 333.966,22.361 C 333.966,19.949 334.706,17.889 336.182,16.182 C 337.657,14.474 339.447,13.621 341.548,13.621 C 344.053,13.621 346.138,14.543 347.807,16.386 C 349.489,18.226 350.327,20.525 350.327,23.276 C 350.327,25.645 349.508,27.718 347.867,29.495 C 346.243,31.282 344.244,32.177 341.871,32.177 Z" marker-start="none" marker-end="none"/>
      <path d="M 372.681,57.477 C 372.681,59.456 373.402,61.158 374.838,62.579 C 376.274,64.015 377.994,64.735 380,64.735 C 382.017,64.735 383.738,64.015 385.16,62.579 C 386.597,61.158 387.317,59.456 387.317,57.477 C 387.317,55.461 386.597,53.733 385.16,52.296 C 383.738,50.874 382.017,50.162 380,50.162 C 377.994,50.162 376.274,50.874 374.838,52.296 C 373.402,53.733 372.681,55.461 372.681,57.477 Z M 374.188,42.928 L 385.891,42.928 L 385.891,3.603 L 374.188,3.603 L 374.188,42.928 Z" marker-start="none" marker-end="none"/>
      <path d="M 397.499,56.423 L 409.203,56.423 L 409.203,42.928 L 414.834,42.928 L 414.834,32.177 L 409.203,32.177 L 409.203,3.603 L 397.499,3.603 L 397.499,32.177 L 393.025,32.177 L 393.025,42.928 L 397.499,42.928 L 397.499,56.423 Z" marker-start="none" marker-end="none"/>
      <path d="M 420.4,57.477 C 420.4,59.456 421.12,61.158 422.555,62.579 C 423.993,64.015 425.714,64.735 427.717,64.735 C 429.735,64.735 431.455,64.015 432.878,62.579 C 434.316,61.158 435.034,59.456 435.034,57.477 C 435.034,55.461 434.316,53.733 432.878,52.296 C 431.455,50.874 429.735,50.162 427.717,50.162 C 425.714,50.162 423.993,50.874 422.555,52.296 C 421.12,53.733 420.4,55.461 420.4,57.477 Z M 421.906,42.928 L 433.61,42.928 L 433.61,3.603 L 421.906,3.603 L 421.906,42.928 Z" marker-start="none" marker-end="none"/>
      <path d="M 444.177,23.172 C 444.177,29.244 446.108,34.194 449.971,38.028 C 453.848,41.876 458.82,43.799 464.89,43.799 C 470.524,43.799 475.251,41.846 479.075,37.929 C 482.909,34.013 484.826,29.154 484.826,23.355 C 484.826,17.451 482.909,12.536 479.075,8.621 C 475.251,4.721 470.463,2.77 464.707,2.77 C 458.216,2.77 453.168,4.837 449.563,8.967 C 445.974,13.098 444.177,17.833 444.177,23.172 Z M 473.302,23.172 C 473.302,25.828 472.428,28.145 470.682,30.122 C 468.947,32.102 466.92,33.092 464.602,33.092 C 462.205,33.092 460.133,32.162 458.387,30.307 C 456.652,28.451 455.784,26.231 455.784,23.64 C 455.784,20.796 456.643,18.384 458.365,16.405 C 460.088,14.427 462.166,13.438 464.602,13.438 C 466.92,13.438 468.947,14.406 470.682,16.345 C 472.428,18.282 473.302,20.557 473.302,23.172 Z" marker-start="none" marker-end="none"/>
      <path d="M 507.082,42.928 L 507.082,38.274 C 511.076,42.013 515.272,43.88 519.662,43.88 C 523.414,43.88 526.515,42.343 528.971,39.269 C 531.421,36.194 532.646,32.264 532.646,27.482 L 532.646,3.603 L 520.757,3.603 L 520.757,25.591 C 520.757,27.856 520.14,29.758 518.909,31.301 C 517.674,32.86 516.172,33.638 514.398,33.638 C 512.269,33.638 510.515,32.658 509.133,30.694 C 507.765,28.727 507.082,26.196 507.082,23.092 L 507.082,3.603 L 495.376,3.603 L 495.376,42.928 L 507.082,42.928 Z" marker-start="none" marker-end="none"/>
     </g>
    </g>
   </g>
  </g>
 </g>
</svg>