<?xml version="1.0" standalone="no"?>
<!DOCTYPE svg PUBLIC "-//W3C//DTD SVG 20010904//EN"
 "http://www.w3.org/TR/2001/REC-SVG-20010904/DTD/svg10.dtd">
<svg version="1.0" xmlns="http://www.w3.org/2000/svg"
 width="660.000000pt" height="660.000000pt" viewBox="0 0 660.000000 660.000000"
 preserveAspectRatio="xMidYMid meet">
<metadata>
Created by potrace 1.11, written by Peter Selinger 2001-2013
</metadata>
<g transform="translate(0.000000,660.000000) scale(0.100000,-0.100000)"
fill="#000000" stroke="none">
<path d="M3089 6596 c-2 -2 -40 -6 -84 -10 -44 -3 -96 -9 -115 -11 -19 -3 -66
-10 -105 -16 -495 -74 -1032 -297 -1435 -597 -191 -142 -443 -376 -555 -513
-27 -34 -54 -67 -60 -73 -30 -31 -179 -239 -235 -329 -65 -104 -194 -350 -244
-467 -82 -192 -177 -525 -211 -740 -9 -58 -18 -116 -21 -130 -12 -80 -19 -221
-19 -415 0 -269 11 -392 56 -625 27 -138 24 -126 53 -234 197 -721 636 -1358
1239 -1799 62 -45 122 -87 132 -94 302 -186 479 -273 737 -361 194 -67 455
-131 603 -148 33 -3 62 -8 65 -9 4 -2 51 -7 105 -12 187 -15 613 -8 718 13 12
2 42 6 67 9 237 28 602 134 860 249 400 179 814 476 1082 776 37 41 83 93 103
115 59 66 206 268 278 382 77 123 217 403 272 543 87 223 168 532 190 725 4
33 9 69 11 80 25 121 24 765 -1 804 -2 4 -6 33 -10 65 -3 33 -8 62 -9 65 -2 3
-7 28 -10 55 -4 27 -9 52 -11 55 -1 3 -6 24 -9 46 -19 120 -112 417 -188 595
-299 708 -868 1314 -1555 1659 -345 172 -708 282 -1083 326 -30 4 -66 9 -80
12 -28 5 -526 14 -531 9z m521 -260 c25 -3 65 -9 90 -12 25 -4 57 -8 72 -10
16 -2 74 -13 130 -24 816 -164 1534 -660 1980 -1366 62 -98 193 -349 236 -452
82 -195 166 -499 197 -717 4 -22 8 -51 10 -65 20 -120 27 -515 12 -680 -24
-258 -114 -633 -202 -835 -7 -16 -23 -55 -35 -85 -153 -374 -471 -809 -800
-1092 -461 -397 -975 -629 -1600 -722 -181 -27 -692 -28 -790 -1 -8 2 -37 7
-65 10 -41 4 -109 17 -215 40 -133 29 -321 87 -466 145 -687 274 -1261 804
-1597 1475 -100 201 -211 512 -241 678 -2 15 -7 35 -10 45 -11 38 -42 240 -53
349 -15 148 -6 642 12 673 1 3 6 32 10 65 3 33 13 92 21 130 9 39 18 81 20 95
18 94 87 312 144 456 345 865 1089 1538 1985 1795 60 17 120 33 133 35 13 3
52 11 87 19 34 8 80 17 101 20 21 3 55 8 74 11 19 2 42 6 50 9 8 2 53 7 100
10 46 4 86 8 88 10 6 6 470 -2 522 -9z"/>
<path d="M2708 5505 c-2 -1 -41 -5 -88 -9 -47 -4 -96 -8 -110 -10 -325 -42
-606 -129 -879 -272 -114 -60 -322 -191 -367 -232 -10 -9 -51 -43 -89 -74
-202 -164 -418 -426 -523 -636 -50 -99 -54 -121 -10 -61 68 95 254 294 385
411 234 210 569 414 861 524 67 25 247 79 292 88 14 2 45 9 70 14 192 43 541
51 720 17 229 -44 446 -139 625 -274 218 -165 396 -438 456 -698 44 -196 47
-421 8 -623 -127 -654 -626 -1289 -1298 -1654 -57 -31 -106 -56 -109 -56 -3 0
-32 -13 -66 -29 -135 -63 -390 -145 -519 -166 -18 -3 -43 -7 -57 -10 -24 -5
-67 -10 -160 -21 -127 -15 -338 -4 -435 22 -39 11 81 -60 190 -112 468 -223
1082 -295 1624 -189 571 111 1114 426 1456 845 64 78 165 219 173 240 3 8 13
26 23 40 10 14 40 71 67 125 166 333 229 715 177 1060 -3 17 -7 48 -10 70 -12
81 -65 263 -105 360 -55 132 -91 200 -170 320 -334 511 -899 857 -1570 960
-19 3 -46 7 -60 10 -74 12 -491 29 -502 20z"/>
<path d="M5304 3913 c15 -50 46 -195 52 -248 3 -33 8 -69 10 -80 7 -32 6 -325
-1 -385 -12 -111 -34 -250 -40 -260 -2 -4 -6 -20 -9 -36 -3 -16 -16 -65 -30
-110 -121 -404 -381 -766 -759 -1058 -122 -94 -273 -188 -421 -262 -71 -35
-131 -65 -132 -67 -2 -2 24 -2 59 -1 138 6 314 15 342 18 17 2 62 6 100 10 39
4 81 9 95 11 14 3 41 7 60 10 19 3 46 7 60 10 14 3 41 7 60 10 74 12 200 45
316 83 533 175 866 506 948 942 14 74 15 275 2 333 -3 15 -8 37 -10 50 -40
221 -179 491 -375 729 -55 67 -310 318 -323 318 -5 0 -7 -8 -4 -17z"/>
</g>
</svg>
